<?xml version="1.0" encoding="UTF-8"?><svg id="a" xmlns="http://www.w3.org/2000/svg" viewBox="0 0 900 900"><defs><style>.b{fill:#121328;stroke:#fff;stroke-miterlimit:10;}.c{fill:#1fc396;stroke-width:0px;}</style></defs><path class="b" d="M516.524,6.0574c-169.5168,0-306.9373,137.4205-306.9373,306.9373,0,9.2465.4329,18.3906,1.2336,27.429,50.3306-36.0989,112.0229-57.3608,178.6866-57.3608,160.2703,0,291.8262,122.8447,305.7037,279.5082,77.6535-55.6957,128.2507-146.7233,128.2507-249.5764,0-169.5168-137.4205-306.9373-306.9373-306.9373Z"/><path class="c" d="M516.524,617.9319c-160.2703,0-291.8262-122.8448-305.7037-279.5083-77.6535,55.6957-128.2507,146.7233-128.2507,249.5764,0,169.5168,137.4205,306.9373,306.9373,306.9373s306.9373-137.4205,306.9373-306.9373c0-9.2465-.4329-18.3906-1.2336-27.429-50.3306,36.0989-112.0229,57.3609-178.6866,57.3609Z"/></svg>